<?xml version="1.0" encoding="UTF-8" standalone="no"?>
<!-- Created with Inkscape (http://www.inkscape.org/) -->

<svg
   xmlns:dc="http://purl.org/dc/elements/1.1/"
   xmlns:cc="http://creativecommons.org/ns#"
   xmlns:rdf="http://www.w3.org/1999/02/22-rdf-syntax-ns#"
   xmlns:svg="http://www.w3.org/2000/svg"
   xmlns="http://www.w3.org/2000/svg"
   xmlns:sodipodi="http://sodipodi.sourceforge.net/DTD/sodipodi-0.dtd"
   xmlns:inkscape="http://www.inkscape.org/namespaces/inkscape"
   width="512mm"
   height="160mm"
   viewBox="0 0 512 160"
   version="1.1"
   id="svg8"
   inkscape:version="0.92.5 (2060ec1f9f, 2020-04-08)"
   sodipodi:docname="atilierlogowhite.svg">
  <defs
     id="defs2" />
  <sodipodi:namedview
     id="base"
     pagecolor="#ffffff"
     bordercolor="#666666"
     borderopacity="1.0"
     inkscape:pageopacity="0.0"
     inkscape:pageshadow="2"
     inkscape:zoom="0.49497475"
     inkscape:cx="938.99885"
     inkscape:cy="410.71365"
     inkscape:document-units="mm"
     inkscape:current-layer="layer1"
     showgrid="false"
     inkscape:window-width="1920"
     inkscape:window-height="1031"
     inkscape:window-x="0"
     inkscape:window-y="25"
     inkscape:window-maximized="1" />
  <metadata
     id="metadata5">
    <rdf:RDF>
      <cc:Work
         rdf:about="">
        <dc:format>image/svg+xml</dc:format>
        <dc:type
           rdf:resource="http://purl.org/dc/dcmitype/StillImage" />
        <dc:title></dc:title>
      </cc:Work>
    </rdf:RDF>
  </metadata>
  <g
     inkscape:label="Layer 1"
     inkscape:groupmode="layer"
     id="layer1"
     transform="translate(0,-137)">
    <g
       id="g4626"
       transform="matrix(1.4919444,0,0,1.4919444,-154.38857,240.88501)"
       style="fill:#ffffff">
      <g
         transform="translate(2.6726953,-181.20874)"
         id="text12"
         style="font-style:normal;font-variant:normal;font-weight:bold;font-stretch:normal;font-size:138.88508606px;line-height:1.25;font-family:'padmaa-Bold.1.1';-inkscape-font-specification:'padmaa-Bold.1.1, Bold';font-variant-ligatures:normal;font-variant-caps:normal;font-variant-numeric:normal;font-feature-settings:normal;text-align:start;letter-spacing:0px;word-spacing:0px;writing-mode:lr-tb;text-anchor:start;fill:#ffffff;fill-opacity:1;stroke:none;stroke-width:3.47212434"
         aria-label="Atilier">
        <path
           inkscape:connector-curvature="0"
           id="path4528"
           style="font-style:normal;font-variant:normal;font-weight:bold;font-stretch:normal;font-size:138.88508606px;font-family:'padmaa-Bold.1.1';-inkscape-font-specification:'padmaa-Bold.1.1, Bold';font-variant-ligatures:normal;font-variant-caps:normal;font-variant-numeric:normal;font-feature-settings:normal;text-align:start;writing-mode:lr-tb;text-anchor:start;fill:#ffffff;stroke-width:3.47212434"
           d="m 205.57486,149.76925 v 5.96772 h -12.74922 v 40.82462 q 0,3.25512 0.54252,4.61142 1.22067,3.11948 4.74705,3.11948 2.17008,0 3.79764,-1.3563 1.62756,-1.35629 3.93327,-5.69645 l 3.39075,1.49193 q -3.25512,6.64586 -6.37461,9.76535 -5.4252,5.4252 -13.563,5.4252 -9.35847,0 -13.15611,-5.96772 -2.17007,-3.52638 -2.17007,-8.27342 v -43.94411 h -7.05276 v -3.66201 q 6.10335,-5.15394 10.4435,-9.90099 5.56083,-6.10335 12.07107,-15.32619 h 3.39075 v 22.92147 z" />
        <path
           sodipodi:nodetypes="cccccssccccsccssasaaaas"
           inkscape:connector-curvature="0"
           id="path4530"
           style="font-style:normal;font-variant:normal;font-weight:bold;font-stretch:normal;font-size:138.88508606px;font-family:'padmaa-Bold.1.1';-inkscape-font-specification:'padmaa-Bold.1.1, Bold';font-variant-ligatures:normal;font-variant-caps:normal;font-variant-numeric:normal;font-feature-settings:normal;text-align:start;writing-mode:lr-tb;text-anchor:start;fill:#ffffff;stroke-width:3.47212434"
           d="m 244.95815,209.03954 v 3.25512 h -32.41557 v -3.25512 c 2.89344,-0.72336 4.70184,-1.40151 5.4252,-2.03445 1.17546,-1.08504 1.76319,-3.11949 1.76319,-6.10334 v -39.87521 c 0,-2.89344 -0.49731,-4.79226 -1.49193,-5.69646 -0.9042,-0.99462 -2.80302,-1.76319 -5.69646,-2.30571 v -3.25512 h 26.04096 v 51.53939 c 0,2.44133 0.40689,4.29494 1.22067,5.56082 0.81378,1.17546 2.53176,1.89882 5.15394,2.17008 z M 218.5103,129.15349 c 0,-2.89344 0.99462,-5.37999 2.98386,-7.45965 1.98924,-2.07965 4.85836,-3.1372 7.59528,-3.11948 2.6535,0.0172 5.28907,1.08453 7.32402,3.11948 2.03495,2.03495 3.0985,4.76452 3.11949,7.45965 0.0209,2.67802 -1.09016,5.56595 -2.98386,7.45965 -1.8937,1.8937 -4.78157,2.97559 -7.45965,2.98386 -2.72011,0.008 -5.66593,-1.06639 -7.59528,-2.98386 -1.89954,-1.88785 -2.98386,-4.47579 -2.98386,-7.45965 z" />
        <path
           inkscape:connector-curvature="0"
           id="path4532"
           style="font-style:normal;font-variant:normal;font-weight:bold;font-stretch:normal;font-size:138.88508606px;font-family:'padmaa-Bold.1.1';-inkscape-font-specification:'padmaa-Bold.1.1, Bold';font-variant-ligatures:normal;font-variant-caps:normal;font-variant-numeric:normal;font-feature-settings:normal;text-align:start;writing-mode:lr-tb;text-anchor:start;fill:#ffffff;stroke-width:3.47212434"
           d="m 283.06328,209.03954 v 3.25512 h -32.41556 v -3.25512 q 3.52638,0 5.4252,-2.84823 1.49193,-2.30571 1.49193,-5.28956 v -69.17129 q 0,-3.66201 -1.89882,-5.69646 -1.76319,-2.17008 -5.01831,-2.17008 v -3.25512 h 25.76969 v 80.29295 q 0,3.662 1.3563,5.96771 1.49193,2.17008 5.28957,2.17008 z" />
        <path
           inkscape:connector-curvature="0"
           id="path4534"
           style="font-style:normal;font-variant:normal;font-weight:bold;font-stretch:normal;font-size:138.88508606px;font-family:'padmaa-Bold.1.1';-inkscape-font-specification:'padmaa-Bold.1.1, Bold';font-variant-ligatures:normal;font-variant-caps:normal;font-variant-numeric:normal;font-feature-settings:normal;text-align:start;writing-mode:lr-tb;text-anchor:start;fill:#ffffff;stroke-width:3.47212434"
           d="m 320.7684,209.03954 v 3.25512 h -32.41556 v -3.25512 q 4.34016,-1.08504 5.4252,-2.03445 1.76319,-1.62756 1.76319,-6.10334 v -39.87521 q 0,-4.34016 -1.49193,-5.69646 -1.3563,-1.49193 -5.69646,-2.30571 v -3.25512 h 26.04096 v 51.53939 q 0,3.662 1.22066,5.56082 1.22067,1.76319 5.15394,2.17008 z m -26.44784,-79.88605 q 0,-4.34016 2.98386,-7.45965 2.98386,-3.11948 7.59528,-3.11948 4.34016,0 7.32402,3.11948 3.11949,2.98386 3.11949,7.45965 0,4.47579 -2.98386,7.45965 -2.98386,2.98386 -7.45965,2.98386 -4.61142,0 -7.59528,-2.98386 -2.98386,-2.98386 -2.98386,-7.45965 z" />
        <path
           inkscape:connector-curvature="0"
           id="path4536"
           transform="matrix(0.26458333,0,0,0.26458333,0,41)"
           d="m 1335.9434,404.94531 c -30.0736,0 -55.1906,11.4488 -75.3536,34.34571 -20.1629,22.89686 -30.246,52.79858 -30.246,89.70703 0,41.00938 10.9369,72.9625 32.8085,95.85937 19.1378,19.82121 42.8892,29.73242 71.2539,29.73242 21.1882,0 39.4711,-4.78466 54.8497,-14.35351 15.7202,-9.56886 31.2699,-26.14425 46.6484,-49.72461 l -12.3027,-7.17578 c -10.9359,12.9863 -20.8471,22.04183 -29.7325,27.16797 -8.5436,4.78442 -17.941,7.17773 -28.1933,7.17773 -22.2134,0 -38.6169,-10.59506 -49.211,-31.7832 -8.2018,-16.40376 -12.3027,-37.76182 -12.3027,-64.07617 h 129.1797 c 0,-36.56671 -9.2274,-65.78657 -27.6816,-87.65821 -16.4038,-19.47946 -39.6433,-29.21875 -69.7168,-29.21875 z m 0.7148,27.40625 c 8.8815,0.0575 17.7026,3.63028 24.5137,10.44141 6.8111,6.81116 10.3711,15.94796 10.4414,24.96875 0.07,8.96356 -3.648,18.62841 -9.9863,24.9668 -6.3384,6.33834 -16.0051,9.96057 -24.9688,9.98828 -9.1044,0.0265 -18.9642,-3.57038 -25.4219,-9.98828 -6.3579,-6.31881 -9.9863,-14.97959 -9.9863,-24.9668 0,-9.68455 3.3282,-18.00796 9.9863,-24.96875 6.6582,-6.96076 16.2612,-10.50071 25.4219,-10.44141 z"
           style="font-style:normal;font-variant:normal;font-weight:bold;font-stretch:normal;font-size:138.88508606px;font-family:'padmaa-Bold.1.1';-inkscape-font-specification:'padmaa-Bold.1.1, Bold';font-variant-ligatures:normal;font-variant-caps:normal;font-variant-numeric:normal;font-feature-settings:normal;text-align:start;writing-mode:lr-tb;text-anchor:start;fill:#ffffff;stroke-width:13.12298965" />
        <path
           inkscape:connector-curvature="0"
           id="path4538"
           style="font-style:normal;font-variant:normal;font-weight:bold;font-stretch:normal;font-size:138.88508606px;font-family:'padmaa-Bold.1.1';-inkscape-font-specification:'padmaa-Bold.1.1, Bold';font-variant-ligatures:normal;font-variant-caps:normal;font-variant-numeric:normal;font-feature-settings:normal;text-align:start;writing-mode:lr-tb;text-anchor:start;fill:#ffffff;stroke-width:3.47212434"
           d="m 420.76843,209.03954 v 3.25512 h -36.07757 v -3.25512 q 4.0689,-0.81378 5.28957,-1.76319 2.03445,-1.76319 2.03445,-6.3746 v -39.87521 q 0,-4.74705 -2.03445,-6.37461 -1.3563,-1.08504 -5.28957,-1.62756 v -3.25512 h 25.63406 v 10.71477 q 3.93327,-5.28957 6.7815,-7.73091 5.4252,-4.61142 11.25729,-4.61142 6.10335,0 9.08721,4.0689 2.17008,2.84823 2.17008,6.51024 0,3.39074 -1.76319,5.83208 -2.30571,3.25512 -6.91713,3.25512 -4.34016,0 -8.27343,-5.4252 -1.89882,-2.57696 -3.79764,-2.57696 -3.39075,0 -5.96772,4.34015 -2.03445,3.52638 -2.03445,8.54469 v 25.63407 q 0,6.3746 1.89882,8.54468 1.89882,2.17008 8.00217,2.17008 z" />
      </g>
      <g
         transform="translate(-0.52916667)"
         id="text4602"
         style="font-style:normal;font-variant:normal;font-weight:bold;font-stretch:normal;font-size:136.00585938px;line-height:1.25;font-family:'padmaa-Bold.1.1';-inkscape-font-specification:'padmaa-Bold.1.1, Bold';font-variant-ligatures:normal;font-variant-caps:normal;font-variant-numeric:normal;font-feature-settings:normal;text-align:start;letter-spacing:0px;word-spacing:0px;writing-mode:lr-tb;text-anchor:start;fill:#ffffff;fill-opacity:1;stroke:none;stroke-width:3.40015221"
         aria-label="a">
        <path
           inkscape:connector-curvature="0"
           id="path4610"
           d="m 136.42972,-32.267159 c -7.88055,0 -14.07891,1.682509 -18.59473,5.047239 -4.16163,3.099088 -6.24251,6.90622 -6.24251,11.422041 0,3.010548 0.75299,5.268477 2.25826,6.7737466 1.50527,1.5052699 3.67467,2.2582608 6.50813,2.2582608 2.47927,0 4.47111,-0.575937 5.97638,-1.7270281 1.948,-1.5052697 2.9223,-3.4090903 2.9223,-5.7112803 0,-1.948 -0.66394,-3.762785 -1.99213,-5.445143 -1.32818,-1.682372 -1.99264,-2.877987 -1.99264,-3.586345 0,-1.151091 0.75299,-2.213404 2.25826,-3.187404 1.50527,-1.062548 3.36432,-1.593699 5.57796,-1.593699 4.60436,0 7.79233,1.106569 9.56324,3.320209 1.41673,1.770911 2.12493,4.559998 2.12493,8.367447 v 9.696051 c -12.04219,3.6303691 -20.36568,6.77354494 -24.97005,9.429914 -7.17218,4.073091 -10.758,9.208632 -10.758,15.406811 0,4.604372 1.63825,8.234966 4.91443,10.891324 2.74491,2.213642 5.97662,3.320212 9.69553,3.320212 2.65637,0 5.48971,-0.486892 8.50026,-1.460892 4.69291,-1.50527 8.89892,-4.117306 12.61783,-7.836215 0.61982,2.922 1.41655,4.958615 2.39055,6.109706 1.77091,2.125088 4.6933,3.187401 8.76639,3.187401 2.922,0 5.57829,-0.663946 7.96902,-1.992125 2.39073,-1.32819 4.6044,-3.187742 6.64094,-5.578472 l -1.99264,-2.788976 -1.32808,1.328084 c -0.35418,0.354179 -0.79682,0.531233 -1.32809,0.531233 -1.32819,0 -2.16918,-0.309848 -2.52336,-0.929658 -0.26563,-0.708372 -0.39842,-1.50562 -0.39842,-2.391069 V -14.07137 c 0,-6.021091 -2.47924,-10.536427 -7.43779,-13.546976 -4.87001,-3.099091 -11.24542,-4.648813 -19.12597,-4.648813 z m -0.92759,34.7064087 c 2.34989,0.0152 4.6838,0.9599956 6.48591,2.7621045 1.80211,1.802122 2.74403,4.2195665 2.76262,6.6063148 0.0185,2.371611 -0.96571,4.929285 -2.64273,6.606315 -1.67702,1.677022 -4.23415,2.634887 -6.6058,2.642216 -2.40888,0.007 -5.01813,-0.944144 -6.72672,-2.642216 -1.68219,-1.671849 -2.64221,-3.963863 -2.64221,-6.606315 0,-2.5623683 0.88057,-4.7646032 2.64221,-6.6063148 1.76163,-1.8416985 4.30295,-2.7777943 6.72672,-2.7621045 z"
           style="font-style:normal;font-variant:normal;font-weight:bold;font-stretch:normal;font-size:136.00585938px;font-family:'padmaa-Bold.1.1';-inkscape-font-specification:'padmaa-Bold.1.1, Bold';font-variant-ligatures:normal;font-variant-caps:normal;font-variant-numeric:normal;font-feature-settings:normal;text-align:start;writing-mode:lr-tb;text-anchor:start;fill:#ffffff;stroke-width:3.40015221" />
      </g>
    </g>
  </g>
</svg>
