<?xml version="1.0" encoding="UTF-8" standalone="no"?>
<!-- Created with Inkscape (http://www.inkscape.org/) -->

<svg
   xmlns:dc="http://purl.org/dc/elements/1.1/"
   xmlns:cc="http://creativecommons.org/ns#"
   xmlns:rdf="http://www.w3.org/1999/02/22-rdf-syntax-ns#"
   xmlns:svg="http://www.w3.org/2000/svg"
   xmlns="http://www.w3.org/2000/svg"
   xmlns:sodipodi="http://sodipodi.sourceforge.net/DTD/sodipodi-0.dtd"
   xmlns:inkscape="http://www.inkscape.org/namespaces/inkscape"
   width="538mm"
   height="160mm"
   viewBox="0 0 538 160"
   version="1.1"
   id="svg8"
   inkscape:version="0.92.5 (2060ec1f9f, 2020-04-08)"
   sodipodi:docname="atilierlogowhite.svg">
  <defs
     id="defs2" />
  <sodipodi:namedview
     id="base"
     pagecolor="#ffffff"
     bordercolor="#666666"
     borderopacity="1.0"
     inkscape:pageopacity="0.0"
     inkscape:pageshadow="2"
     inkscape:zoom="0.49497475"
     inkscape:cx="938.99885"
     inkscape:cy="410.71365"
     inkscape:document-units="mm"
     inkscape:current-layer="layer1"
     showgrid="false"
     inkscape:window-width="1920"
     inkscape:window-height="1031"
     inkscape:window-x="0"
     inkscape:window-y="25"
     inkscape:window-maximized="1"
     units="mm" />
  <metadata
     id="metadata5">
    <rdf:RDF>
      <cc:Work
         rdf:about="">
        <dc:format>image/svg+xml</dc:format>
        <dc:type
           rdf:resource="http://purl.org/dc/dcmitype/StillImage" />
        <dc:title></dc:title>
      </cc:Work>
    </rdf:RDF>
  </metadata>
  <g
     inkscape:label="Layer 1"
     inkscape:groupmode="layer"
     id="layer1"
     transform="translate(0,-137)">
    <g
       id="g855"
       transform="translate(0.52916667)"
       style="fill:#ffffff">
      <g
         style="fill:#ffffff"
         transform="matrix(1.4919444,0,0,1.4919444,-154.38857,240.88501)"
         id="g4626">
        <g
           aria-label="Atilier"
           style="font-style:normal;font-variant:normal;font-weight:bold;font-stretch:normal;font-size:138.88508606px;line-height:1.25;font-family:'padmaa-Bold.1.1';-inkscape-font-specification:'padmaa-Bold.1.1, Bold';font-variant-ligatures:normal;font-variant-caps:normal;font-variant-numeric:normal;font-feature-settings:normal;text-align:start;letter-spacing:0px;word-spacing:0px;writing-mode:lr-tb;text-anchor:start;fill:#ffffff;fill-opacity:1;stroke:none;stroke-width:3.47212434"
           id="text12"
           transform="translate(2.6726953,-181.20874)">
          <path
             d="m 205.57486,149.76925 v 5.96772 h -12.74922 v 40.82462 q 0,3.25512 0.54252,4.61142 1.22067,3.11948 4.74705,3.11948 2.17008,0 3.79764,-1.3563 1.62756,-1.35629 3.93327,-5.69645 l 3.39075,1.49193 q -3.25512,6.64586 -6.37461,9.76535 -5.4252,5.4252 -13.563,5.4252 -9.35847,0 -13.15611,-5.96772 -2.17007,-3.52638 -2.17007,-8.27342 v -43.94411 h -7.05276 v -3.66201 q 6.10335,-5.15394 10.4435,-9.90099 5.56083,-6.10335 12.07107,-15.32619 h 3.39075 v 22.92147 z"
             style="font-style:normal;font-variant:normal;font-weight:bold;font-stretch:normal;font-size:138.88508606px;font-family:'padmaa-Bold.1.1';-inkscape-font-specification:'padmaa-Bold.1.1, Bold';font-variant-ligatures:normal;font-variant-caps:normal;font-variant-numeric:normal;font-feature-settings:normal;text-align:start;writing-mode:lr-tb;text-anchor:start;fill:#ffffff;stroke-width:3.47212434"
             id="path4528"
             inkscape:connector-curvature="0" />
          <path
             d="m 298.82775,209.03954 v 3.25512 h -32.41556 v -3.25512 q 3.52638,0 5.4252,-2.84823 1.49193,-2.30571 1.49193,-5.28956 v -69.17129 q 0,-3.66201 -1.89882,-5.69646 -1.76319,-2.17008 -5.01831,-2.17008 v -3.25512 h 25.76969 v 80.29295 q 0,3.662 1.3563,5.96771 1.49193,2.17008 5.28957,2.17008 z"
             style="font-style:normal;font-variant:normal;font-weight:bold;font-stretch:normal;font-size:138.88508606px;font-family:'padmaa-Bold.1.1';-inkscape-font-specification:'padmaa-Bold.1.1, Bold';font-variant-ligatures:normal;font-variant-caps:normal;font-variant-numeric:normal;font-feature-settings:normal;text-align:start;writing-mode:lr-tb;text-anchor:start;fill:#ffffff;stroke-width:3.47212434"
             id="path4532"
             inkscape:connector-curvature="0" />
          <path
             d="m 336.53287,209.03954 v 3.25512 h -32.41556 v -3.25512 q 4.34016,-1.08504 5.4252,-2.03445 1.76319,-1.62756 1.76319,-6.10334 v -39.87521 q 0,-4.34016 -1.49193,-5.69646 -1.3563,-1.49193 -5.69646,-2.30571 v -3.25512 h 26.04096 v 51.53939 q 0,3.662 1.22066,5.56082 1.22067,1.76319 5.15394,2.17008 z m -26.44784,-79.88605 q 0,-4.34016 2.98386,-7.45965 2.98386,-3.11948 7.59528,-3.11948 4.34016,0 7.32402,3.11948 3.11949,2.98386 3.11949,7.45965 0,4.47579 -2.98386,7.45965 -2.98386,2.98386 -7.45965,2.98386 -4.61142,0 -7.59528,-2.98386 -2.98386,-2.98386 -2.98386,-7.45965 z"
             style="font-style:normal;font-variant:normal;font-weight:bold;font-stretch:normal;font-size:138.88508606px;font-family:'padmaa-Bold.1.1';-inkscape-font-specification:'padmaa-Bold.1.1, Bold';font-variant-ligatures:normal;font-variant-caps:normal;font-variant-numeric:normal;font-feature-settings:normal;text-align:start;writing-mode:lr-tb;text-anchor:start;fill:#ffffff;stroke-width:3.47212434"
             id="path4534"
             inkscape:connector-curvature="0" />
          <path
             style="font-style:normal;font-variant:normal;font-weight:bold;font-stretch:normal;font-size:138.88508606px;font-family:'padmaa-Bold.1.1';-inkscape-font-specification:'padmaa-Bold.1.1, Bold';font-variant-ligatures:normal;font-variant-caps:normal;font-variant-numeric:normal;font-feature-settings:normal;text-align:start;writing-mode:lr-tb;text-anchor:start;fill:#ffffff;stroke-width:3.47212434"
             d="m 369.23283,148.14178 c -7.95698,0 -14.60252,3.02916 -19.93731,9.0873 -5.33477,6.05813 -8.00259,13.96963 -8.00259,23.73499 0,10.85039 2.89372,19.30466 8.68059,25.36279 5.06354,5.24436 11.34776,7.8667 18.85259,7.8667 5.60604,0 10.44339,-1.26594 14.51232,-3.7977 4.1593,-2.53176 8.27349,-6.91733 12.34238,-13.1563 l -3.25508,-1.89859 c -2.89346,3.43595 -5.5158,5.8319 -7.86673,7.18819 -2.26049,1.26588 -4.74689,1.89911 -7.45948,1.89911 -5.87729,0 -10.21738,-2.80328 -13.02041,-8.40931 -2.17006,-4.34016 -3.25509,-9.99115 -3.25509,-16.95349 h 34.1788 c 0,-9.67494 -2.44142,-17.40603 -7.32409,-23.1929 -4.34017,-5.15394 -10.48896,-7.73079 -18.4459,-7.73079 z m 0.18912,7.25124 c 2.3499,0.0152 4.68381,0.96051 6.48592,2.76262 1.8021,1.80212 2.74402,4.21956 2.76262,6.60631 0.0185,2.37161 -0.9652,4.92877 -2.64221,6.6058 -1.67704,1.67702 -4.23468,2.6354 -6.60633,2.64273 -2.40887,0.007 -5.01761,-0.94466 -6.72621,-2.64273 -1.68219,-1.67185 -2.64221,-3.96335 -2.64221,-6.6058 0,-2.56237 0.88059,-4.7646 2.64221,-6.60631 1.76165,-1.8417 4.30244,-2.77831 6.72621,-2.76262 z"
             id="path4536"
             inkscape:connector-curvature="0" />
          <path
             d="m 436.5329,209.03954 v 3.25512 h -36.07757 v -3.25512 q 4.0689,-0.81378 5.28957,-1.76319 2.03445,-1.76319 2.03445,-6.3746 v -39.87521 q 0,-4.74705 -2.03445,-6.37461 -1.3563,-1.08504 -5.28957,-1.62756 v -3.25512 h 25.63406 v 10.71477 q 3.93327,-5.28957 6.7815,-7.73091 5.4252,-4.61142 11.25729,-4.61142 6.10335,0 9.08721,4.0689 2.17008,2.84823 2.17008,6.51024 0,3.39074 -1.76319,5.83208 -2.30571,3.25512 -6.91713,3.25512 -4.34016,0 -8.27343,-5.4252 -1.89882,-2.57696 -3.79764,-2.57696 -3.39075,0 -5.96772,4.34015 -2.03445,3.52638 -2.03445,8.54469 v 25.63407 q 0,6.3746 1.89882,8.54468 1.89882,2.17008 8.00217,2.17008 z"
             style="font-style:normal;font-variant:normal;font-weight:bold;font-stretch:normal;font-size:138.88508606px;font-family:'padmaa-Bold.1.1';-inkscape-font-specification:'padmaa-Bold.1.1, Bold';font-variant-ligatures:normal;font-variant-caps:normal;font-variant-numeric:normal;font-feature-settings:normal;text-align:start;writing-mode:lr-tb;text-anchor:start;fill:#ffffff;stroke-width:3.47212434"
             id="path4538"
             inkscape:connector-curvature="0" />
        </g>
        <g
           aria-label="a"
           style="font-style:normal;font-variant:normal;font-weight:bold;font-stretch:normal;font-size:136.00585938px;line-height:1.25;font-family:'padmaa-Bold.1.1';-inkscape-font-specification:'padmaa-Bold.1.1, Bold';font-variant-ligatures:normal;font-variant-caps:normal;font-variant-numeric:normal;font-feature-settings:normal;text-align:start;letter-spacing:0px;word-spacing:0px;writing-mode:lr-tb;text-anchor:start;fill:#ffffff;fill-opacity:1;stroke:none;stroke-width:3.40015221"
           id="text4602"
           transform="translate(-0.52916667)">
          <path
             style="font-style:normal;font-variant:normal;font-weight:bold;font-stretch:normal;font-size:136.00585938px;font-family:'padmaa-Bold.1.1';-inkscape-font-specification:'padmaa-Bold.1.1, Bold';font-variant-ligatures:normal;font-variant-caps:normal;font-variant-numeric:normal;font-feature-settings:normal;text-align:start;writing-mode:lr-tb;text-anchor:start;fill:#ffffff;stroke-width:3.40015221"
             d="m 136.42972,-32.267159 c -7.88055,0 -14.07891,1.682509 -18.59473,5.047239 -4.16163,3.099088 -6.24251,6.90622 -6.24251,11.422041 0,3.010548 0.75299,5.268477 2.25826,6.7737466 1.50527,1.5052699 3.67467,2.2582608 6.50813,2.2582608 2.47927,0 4.47111,-0.575937 5.97638,-1.7270281 1.948,-1.5052697 2.9223,-3.4090903 2.9223,-5.7112803 0,-1.948 -0.66394,-3.762785 -1.99213,-5.445143 -1.32818,-1.682372 -1.99264,-2.877987 -1.99264,-3.586345 0,-1.151091 0.75299,-2.213404 2.25826,-3.187404 1.50527,-1.062548 3.36432,-1.593699 5.57796,-1.593699 4.60436,0 7.79233,1.106569 9.56324,3.320209 1.41673,1.770911 2.12493,4.559998 2.12493,8.367447 v 9.696051 c -12.04219,3.6303691 -20.36568,6.77354494 -24.97005,9.429914 -7.17218,4.073091 -10.758,9.208632 -10.758,15.406811 0,4.604372 1.63825,8.234966 4.91443,10.891324 2.74491,2.213642 5.97662,3.320212 9.69553,3.320212 2.65637,0 5.48971,-0.486892 8.50026,-1.460892 4.69291,-1.50527 8.89892,-4.117306 12.61783,-7.836215 0.61982,2.922 1.41655,4.958615 2.39055,6.109706 1.77091,2.125088 4.6933,3.187401 8.76639,3.187401 2.922,0 5.57829,-0.663946 7.96902,-1.992125 2.39073,-1.32819 4.6044,-3.187742 6.64094,-5.578472 l -1.99264,-2.788976 -1.32808,1.328084 c -0.35418,0.354179 -0.79682,0.531233 -1.32809,0.531233 -1.32819,0 -2.16918,-0.309848 -2.52336,-0.929658 -0.26563,-0.708372 -0.39842,-1.50562 -0.39842,-2.391069 V -14.07137 c 0,-6.021091 -2.47924,-10.536427 -7.43779,-13.546976 -4.87001,-3.099091 -11.24542,-4.648813 -19.12597,-4.648813 z m -0.92759,34.7064087 c 2.34989,0.0152 4.6838,0.9599956 6.48591,2.7621045 1.80211,1.802122 2.74403,4.2195665 2.76262,6.6063148 0.0185,2.371611 -0.96571,4.929285 -2.64273,6.606315 -1.67702,1.677022 -4.23415,2.634887 -6.6058,2.642216 -2.40888,0.007 -5.01813,-0.944144 -6.72672,-2.642216 -1.68219,-1.671849 -2.64221,-3.963863 -2.64221,-6.606315 0,-2.5623683 0.88057,-4.7646032 2.64221,-6.6063148 1.76163,-1.8416985 4.30295,-2.7777943 6.72672,-2.7621045 z"
             id="path4610"
             inkscape:connector-curvature="0" />
        </g>
      </g>
      <path
         style="font-style:normal;font-variant:normal;font-weight:bold;font-stretch:normal;font-size:138.88508606px;line-height:1.25;font-family:'padmaa-Bold.1.1';-inkscape-font-specification:'padmaa-Bold.1.1, Bold';font-variant-ligatures:normal;font-variant-caps:normal;font-variant-numeric:normal;font-feature-settings:normal;text-align:start;letter-spacing:0px;word-spacing:0px;writing-mode:lr-tb;text-anchor:start;fill:#ffffff;fill-opacity:1;stroke:none;stroke-width:5.18021679"
         d="m 205.90157,191.55094 c -11.87136,0 -21.78613,4.51934 -29.74535,13.55775 -7.95917,9.03839 -11.93941,20.8419 -11.93941,35.41128 0,16.18819 4.31727,28.80148 12.95094,37.83987 7.55453,7.8243 16.93024,11.73669 28.12702,11.73669 8.36391,0 15.58097,-1.88872 21.65157,-5.66596 6.20545,-3.77725 12.3436,-10.32028 18.41416,-19.62847 l -4.85641,-2.8326 c -4.31688,5.12626 -8.22926,8.70088 -11.73671,10.72439 -3.37254,1.88862 -7.0821,2.83336 -11.12913,2.83336 -8.7686,0 -15.24378,-4.18233 -19.42573,-12.54622 -3.23761,-6.47528 -4.85641,-14.90623 -4.85641,-25.29365 h 50.99286 c 0,-14.43448 -3.64246,-25.96883 -10.92713,-34.60252 -6.4753,-7.6894 -15.64894,-11.53392 -27.52027,-11.53392 z m 0.28217,10.81844 c 3.50591,0.0227 6.98799,1.43303 9.67662,4.12168 2.68864,2.68866 4.09393,6.29536 4.12168,9.85626 0.0276,3.5383 -1.44002,7.35344 -3.94203,9.85548 -2.50204,2.50202 -6.31791,3.93188 -9.85627,3.94281 -3.59391,0.0104 -7.486,-1.40938 -10.03514,-3.94281 -2.50974,-2.49431 -3.94202,-5.9131 -3.94202,-9.85548 0,-3.82292 1.31378,-7.10853 3.94202,-9.85626 2.62829,-2.74771 6.41901,-4.14509 10.03514,-4.12168 z"
         id="path4536-4"
         inkscape:connector-curvature="0" />
    </g>
  </g>
</svg>
